<?xml version="1.0" encoding="UTF-8" standalone="no"?>
<!-- Created with Inkscape (http://www.inkscape.org/) -->

<svg
   xmlns:dc="http://purl.org/dc/elements/1.1/"
   xmlns:cc="http://creativecommons.org/ns#"
   xmlns:rdf="http://www.w3.org/1999/02/22-rdf-syntax-ns#"
   xmlns:svg="http://www.w3.org/2000/svg"
   xmlns="http://www.w3.org/2000/svg"
   xmlns:sodipodi="http://sodipodi.sourceforge.net/DTD/sodipodi-0.dtd"
   xmlns:inkscape="http://www.inkscape.org/namespaces/inkscape"
   width="86.984489"
   height="32.766899"
   viewBox="0 0 86.984488 32.766899"
   id="svg4878"
   version="1.1"
   inkscape:version="0.91 r13725"
   sodipodi:docname="the ocean cleanup.svg">
  <defs
     id="defs4880">
    <clipPath
       id="clipPath3899"
       clipPathUnits="userSpaceOnUse">
      <path
         inkscape:connector-curvature="0"
         id="path3901"
         d="m 0,0 595.276,0 0,836.22 L 0,836.22 0,0 Z" />
    </clipPath>
    <clipPath
       id="clipPath3863"
       clipPathUnits="userSpaceOnUse">
      <path
         inkscape:connector-curvature="0"
         id="path3865"
         d="m 0,0 595.276,0 0,836.22 L 0,836.22 0,0 Z" />
    </clipPath>
  </defs>
  <sodipodi:namedview
     id="base"
     pagecolor="#ffffff"
     bordercolor="#666666"
     borderopacity="1.0"
     inkscape:pageopacity="0.0"
     inkscape:pageshadow="2"
     inkscape:zoom="3.8913646"
     inkscape:cx="35.463119"
     inkscape:cy="17.861199"
     inkscape:document-units="px"
     inkscape:current-layer="layer1"
     showgrid="false"
     fit-margin-top="0"
     fit-margin-left="0"
     fit-margin-right="0"
     fit-margin-bottom="0"
     units="px"
     inkscape:window-width="1280"
     inkscape:window-height="744"
     inkscape:window-x="-4"
     inkscape:window-y="-4"
     inkscape:window-maximized="1" />
  <metadata
     id="metadata4883">
    <rdf:RDF>
      <cc:Work
         rdf:about="">
        <dc:format>image/svg+xml</dc:format>
        <dc:type
           rdf:resource="http://purl.org/dc/dcmitype/StillImage" />
        <dc:title></dc:title>
      </cc:Work>
    </rdf:RDF>
  </metadata>
  <g
     inkscape:label="Layer 1"
     inkscape:groupmode="layer"
     id="layer1"
     transform="translate(-417.07201,-985.3561)">
    <g
       id="g5006"
       transform="translate(0.24999972,-0.25000134)">
      <path
         d="m 467.54626,1000.763 0,-14.43498 8.5425,0 0,1.12625 -7.3125,0 0,5.27875 7.1875,0 0,1.12625 -7.1875,0 0,5.77875 7.35375,0 0,1.12498 -8.58375,0 z"
         style="fill:#4dc4d8;fill-opacity:1;fill-rule:nonzero;stroke:none"
         id="path3829"
         inkscape:connector-curvature="0" />
      <path
         d="m 429.20464,994.05952 0,-7.6375 4.4375,0 0,0.59625 -3.78625,0 0,2.7925 3.72,0 0,0.595 -3.72,0 0,3.05875 3.80875,0 0,0.595 -4.46,0 z"
         style="fill:#4dc4d8;fill-opacity:1;fill-rule:nonzero;stroke:none"
         id="path3833"
         inkscape:connector-curvature="0" />
      <path
         d="m 486.61664,995.27772 -5.90375,0 -2.1475,5.48498 -1.21125,0 5.6325,-14.43373 1.2725,0 5.86125,14.43373 -1.2725,0 -2.23125,-5.48498 z m -5.465,-1.105 5.00625,0 -2.545,-6.28 -2.46125,6.28 z"
         style="fill:#4dc4d8;fill-opacity:1;fill-rule:nonzero;stroke:none"
         id="path3837"
         inkscape:connector-curvature="0" />
      <path
         d="m 492.61051,988.43582 0,12.32748 -1.23,0 0,-14.43498 1.27125,0 8.4275,12.41125 0,-12.41125 1.23125,0 0,14.43498 -1.27375,0 -8.42625,-12.32748 z"
         style="fill:#4dc4d8;fill-opacity:1;fill-rule:nonzero;stroke:none"
         id="path3841"
         inkscape:connector-curvature="0" />
      <path
         d="m 430.71426,1017.6447 0,-14.4338 2.9,0 0,11.7225 6.225,0 0,2.7113 -9.125,0 z"
         style="fill:#4dc4d8;fill-opacity:1;fill-rule:nonzero;stroke:none"
         id="path3845"
         inkscape:connector-curvature="0" />
      <path
         d="m 441.59514,1017.6447 0,-14.4338 9.18875,0 0,2.71 -6.28875,0 0,3.0038 6.18375,0 0,2.6712 -6.18375,0 0,3.3375 6.35125,0 0,2.7113 -9.25125,0 z"
         style="fill:#4dc4d8;fill-opacity:1;fill-rule:nonzero;stroke:none"
         id="path3849"
         inkscape:connector-curvature="0" />
      <path
         d="m 461.37864,1013.682 -4.94375,0 -1.41875,3.9625 -2.85875,0 5.21625,-14.4338 3.045,0 5.465,14.4338 -3.06625,0 -1.43875,-3.9625 z m -4.0475,-2.4625 3.15125,0 -1.58625,-4.3388 -1.565,4.3388 z"
         style="fill:#4dc4d8;fill-opacity:1;fill-rule:nonzero;stroke:none"
         id="path3853"
         inkscape:connector-curvature="0" />
      <path
         d="m 470.01601,1008.1329 0,9.5112 -2.81625,0 0,-14.4337 3.00375,0 6.195,9.6787 0,-9.6787 2.81625,0 0,14.4337 -2.87875,0 -6.32,-9.5112 z"
         style="fill:#4dc4d8;fill-opacity:1;fill-rule:nonzero;stroke:none"
         id="path3857"
         inkscape:connector-curvature="0" />
      <g
         transform="matrix(1.25,0,0,-1.25,445.04225,1000.8511)"
         id="g3867">
        <path
           inkscape:connector-curvature="0"
           id="path3869"
           style="fill:#4dc4d8;fill-opacity:1;fill-rule:nonzero;stroke:none"
           d="m 0,0 c -3.252,0 -5.898,2.646 -5.898,5.898 0,3.253 2.646,5.898 5.898,5.898 3.252,0 5.898,-2.645 5.898,-5.898 C 5.898,2.646 3.252,0 0,0 m 0,10.791 c -2.698,0 -4.893,-2.195 -4.893,-4.893 0,-2.698 2.195,-4.892 4.893,-4.892 2.698,0 4.892,2.194 4.892,4.892 0,2.698 -2.194,4.893 -4.892,4.893" />
      </g>
      <g
         transform="matrix(1.25,0,0,-1.25,424.82225,1015.0324)"
         id="g3871">
        <path
           inkscape:connector-curvature="0"
           id="path3873"
           style="fill:#4dc4d8;fill-opacity:1;fill-rule:nonzero;stroke:none"
           d="m 0,0 c -2.05,0 -3.718,1.668 -3.718,3.718 0,2.05 1.668,3.718 3.718,3.718 1.391,0 2.604,-0.769 3.242,-1.903 l 0,3.106 C 2.311,9.255 1.197,9.616 0,9.616 c -3.252,0 -5.898,-2.646 -5.898,-5.899 0,-3.251 2.646,-5.897 5.898,-5.897 1.197,0 2.311,0.36 3.242,0.976 l 0,3.107 C 2.604,0.768 1.391,0 0,0" />
      </g>
      <g
         transform="matrix(1.25,0,0,-1.25,461.58413,999.59411)"
         id="g3875">
        <path
           inkscape:connector-curvature="0"
           id="path3877"
           style="fill:#4dc4d8;fill-opacity:1;fill-rule:nonzero;stroke:none"
           d="m 0,0 c -2.698,0 -4.893,2.194 -4.893,4.892 0,2.698 2.195,4.893 4.893,4.893 1.287,0 2.456,-0.503 3.33,-1.318 l 0,1.288 C 2.382,10.407 1.235,10.79 0,10.79 c -3.253,0 -5.898,-2.645 -5.898,-5.898 0,-3.252 2.645,-5.898 5.898,-5.898 1.235,0 2.382,0.383 3.33,1.035 l 0,1.289 C 2.456,0.503 1.287,0 0,0" />
      </g>
      <g
         transform="matrix(1.25,0,0,-1.25,481.06863,1011.9705)"
         id="g3879">
        <path
           inkscape:connector-curvature="0"
           id="path3881"
           style="fill:#4dc4d8;fill-opacity:1;fill-rule:nonzero;stroke:none"
           d="m 0,0 0,7.042 2.32,0 0,-7.042 c 0,-1.519 0.717,-2.554 2.302,-2.554 1.519,0 2.27,1.069 2.27,2.571 l 0,7.025 2.32,0 0,-7.025 C 9.212,-2.72 7.61,-4.722 4.589,-4.722 1.452,-4.722 0,-2.837 0,0" />
      </g>
      <g
         transform="matrix(1.25,0,0,-1.25,498.884,1011.553)"
         id="g3883">
        <path
           inkscape:connector-curvature="0"
           id="path3885"
           style="fill:#4dc4d8;fill-opacity:1;fill-rule:nonzero;stroke:none"
           d="m 0,0 -1.268,0 0,-4.84 -2.303,0 0,11.548 3.571,0 C 2.303,6.708 3.538,5.523 3.538,3.387 3.538,1.301 2.136,0 0,0 m -1.268,4.706 0,-2.703 1.084,0 c 0.852,0 1.319,0.549 1.319,1.368 0,0.817 -0.467,1.335 -1.319,1.335 l -1.084,0 z" />
      </g>
      <path
         d="m 419.68451,987.01832 0,7.04125 -0.65,0 0,-7.04125 -1.7125,0 0,-0.59625 4.10625,0 0,0.59625 -1.74375,0 z"
         style="fill:#4dc4d8;fill-opacity:1;fill-rule:nonzero;stroke:none"
         id="path3889"
         inkscape:connector-curvature="0" />
      <path
         d="m 428.03839,994.05952 -0.65125,0 0,-3.68625 -4.21625,0 0,3.68625 -0.65125,0 0,-7.6375 0.65125,0 0,3.345 4.21625,0 0,-3.345 0.65125,0 0,7.6375 z"
         style="fill:#4dc4d8;fill-opacity:1;fill-rule:nonzero;stroke:none"
         id="path3893"
         inkscape:connector-curvature="0" />
    </g>
  </g>
</svg>
